# xmcd CD database file
#
# Track frame offsets:
#	150
#	14247
#	25145
#	40250
#	57432
#	70675
#	79835
#	92587
#	105912
#	124382
#	135867
#	153645
#	171357
#
# Disc length: 2496 seconds
#
# Revision: 9
# Processed by: cddbd v1.5.2PL0 Copyright (c) Steve Scherf et al.
# Submitted via: CDex 1.70beta3
#
DISCID=a809be0d
DTITLE=谷山浩子 - しっぽのきもち
DYEAR=1991
DGENRE=JPop
TTITLE0=しっぽのきもち
TTITLE1=おはようクレヨン
TTITLE2=秋ぎつね
TTITLE3=キャロットスープ
TTITLE4=まっくら森の歌
TTITLE5=エッグムーン
TTITLE6=恋するニワトリ
TTITLE7=ニャコとニャンピ
TTITLE8=はじめてのピュンタ
TTITLE9=愛をもういちど
TTITLE10=恋のタマゴ
TTITLE11=ほうき星の歌
TTITLE12=花時計
EXTD=YEAR: 1991
EXTT0=
EXTT1=
EXTT2=
EXTT3=
EXTT4=
EXTT5=
EXTT6=
EXTT7=
EXTT8=
EXTT9=
EXTT10=
EXTT11=
EXTT12=
PLAYORDER=
